<?xml version="1.0" standalone="no"?>
<!DOCTYPE svg PUBLIC "-//W3C//DTD SVG 20010904//EN"
 "http://www.w3.org/TR/2001/REC-SVG-20010904/DTD/svg10.dtd">
<svg version="1.0" xmlns="http://www.w3.org/2000/svg"
 width="315.000000pt" height="315.000000pt" viewBox="0 0 315.000000 315.000000"
 preserveAspectRatio="xMidYMid meet">
<metadata>
Created by potrace 1.14, written by Peter Selinger 2001-2017
</metadata>
<g transform="translate(0.000000,315.000000) scale(0.100000,-0.100000)"
fill="#000000" stroke="none">
<path d="M765 3020 l-80 -5 0 -127 c-1 -86 -5 -132 -13 -140 -7 -7 -12 -27
-12 -45 l0 -33 -162 -2 -163 -3 -3 -124 c-2 -68 -7 -132 -12 -142 -6 -10 -10
-165 -10 -368 0 -343 0 -351 21 -361 26 -14 150 -19 167 -7 7 6 12 6 12 0 0
-9 76 -10 85 -1 3 2 18 3 33 0 l28 -4 1 -160 c1 -158 2 -160 27 -183 19 -18
26 -20 26 -9 0 11 4 12 19 5 10 -6 22 -7 26 -3 5 4 5 1 1 -5 -11 -19 5 -15 20
5 7 9 14 12 14 6 0 -11 35 -12 46 -1 4 3 14 3 23 -1 21 -10 42 -9 60 2 9 6 12
5 8 -1 -8 -12 61 -13 79 -1 6 4 14 4 18 0 11 -10 30 -9 38 3 5 6 8 6 8 -2 0
-11 16 -12 35 -2 9 5 31 5 38 -1 9 -7 47 -5 47 4 0 6 4 6 12 -2 7 -7 17 -8 29
-2 22 12 51 -13 43 -38 -5 -16 -5 -16 5 0 8 12 22 16 51 13 22 -2 40 0 40 5 0
5 -13 7 -30 5 -23 -3 -30 0 -30 13 0 10 3 13 8 7 4 -5 21 -10 37 -10 26 0 30
-3 27 -25 -2 -20 0 -22 9 -10 9 12 10 10 5 -9 -3 -17 -2 -21 6 -13 6 6 7 20 3
33 -9 27 -8 30 3 27 4 -2 6 -7 4 -11 -1 -4 7 -3 19 3 28 15 37 5 10 -12 -12
-7 -21 -17 -21 -22 0 -4 7 -3 15 4 9 7 15 8 15 2 0 -5 8 -13 17 -16 16 -6 16
-6 0 12 -16 18 -16 19 13 19 22 0 27 -3 20 -12 -7 -9 -6 -14 4 -18 10 -4 13
-1 9 9 -3 7 0 14 6 14 6 0 11 -4 11 -10 0 -5 5 -10 11 -10 8 0 8 4 0 13 -8 11
-5 14 19 14 22 0 27 -3 20 -12 -7 -9 -6 -14 4 -18 10 -4 13 -1 9 9 -3 7 0 14
6 14 6 0 11 -4 11 -9 0 -5 8 -12 17 -15 16 -6 16 -6 0 12 -16 18 -16 19 13 19
22 0 27 -3 20 -12 -7 -9 -6 -14 4 -18 10 -4 13 -1 9 9 -3 7 0 14 6 14 6 0 11
-4 11 -9 0 -5 8 -12 17 -15 16 -6 16 -6 0 12 -16 18 -16 19 13 19 22 0 27 -3
20 -12 -7 -9 -6 -14 4 -18 11 -4 13 -1 9 11 -6 15 -5 15 10 3 9 -7 17 -9 17
-3 0 5 -7 13 -16 16 -21 8 -6 29 17 23 11 -3 19 0 19 6 0 8 3 8 8 2 10 -14 84
-16 75 -2 -3 6 -1 7 5 3 21 -13 55 -16 67 -6 6 5 17 5 25 0 7 -4 24 -4 37 1
14 5 23 5 23 -1 0 -6 6 -9 13 -8 9 2 12 -37 14 -166 1 -93 4 -177 6 -187 3
-11 1 -19 -4 -19 -5 0 -8 -5 -7 -12 2 -9 -116 -12 -492 -12 l-495 -1 -3 25
c-4 37 -24 100 -32 100 -4 0 -4 18 0 40 4 22 5 42 2 45 -5 4 -5 30 -3 111 1
14 5 22 11 19 6 -3 13 1 16 10 6 14 8 14 25 -1 11 -10 19 -12 19 -6 0 7 -5 12
-11 12 -5 0 -7 5 -4 10 4 6 12 7 18 4 7 -4 9 -4 5 1 -4 4 0 14 10 22 16 12 15
13 -3 6 -11 -4 -26 -14 -33 -22 -12 -15 -13 -14 -9 0 3 9 -1 16 -8 16 -8 0
-11 -7 -7 -16 5 -14 3 -14 -11 -2 -9 7 -17 10 -17 5 0 -5 -4 -3 -9 4 -7 11 -9
11 -14 -1 -4 -10 1 -14 15 -13 12 0 23 -4 25 -11 3 -9 -4 -10 -26 -3 -16 4
-32 6 -35 2 -9 -8 -7 12 2 24 4 5 0 2 -8 -7 -24 -24 -75 -22 -87 4 -9 20 -10
20 -29 1 -15 -15 -35 -20 -87 -21 -65 -2 -68 -1 -62 20 l5 22 -11 -22 c-12
-22 -17 -23 -198 -25 l-186 -3 -3 -124 c-1 -68 -7 -131 -12 -141 -6 -10 -10
-96 -10 -190 0 -192 3 -200 65 -200 22 0 34 -4 30 -10 -3 -5 -1 -10 4 -10 6 0
11 8 11 18 0 14 2 15 9 2 6 -8 7 -18 5 -22 -3 -4 0 -16 6 -25 9 -15 10 -14 4
7 -6 21 -5 23 8 12 13 -10 17 -10 21 2 3 8 -1 13 -10 12 -9 0 -18 5 -21 13 -3
9 0 11 9 6 18 -12 59 -13 59 -1 0 11 14 -2 16 -15 1 -5 2 -15 3 -21 1 -8 9 -4
20 10 26 30 37 28 17 -3 -9 -13 -16 -28 -16 -32 0 -4 5 -1 10 7 5 8 21 15 35
15 14 1 25 4 25 8 0 4 0 9 0 12 0 3 -10 1 -22 -6 -18 -10 -20 -9 -15 6 4 9 7
18 7 19 0 1 16 0 34 -2 l35 -4 -1 -161 c0 -156 1 -161 23 -178 16 -12 28 -15
41 -8 9 5 19 5 22 0 3 -4 21 -7 41 -4 25 2 33 0 30 -10 -3 -7 -15 -13 -25 -14
-13 -1 -18 3 -14 10 4 7 -1 4 -12 -5 -15 -14 -16 -20 -5 -30 10 -11 11 -9 5 6
-6 17 -5 17 17 6 18 -10 24 -10 27 0 3 7 13 21 24 32 19 19 20 19 41 1 18 -16
20 -16 14 -1 -4 12 -2 15 9 11 8 -3 13 -11 10 -18 -2 -6 0 -18 5 -26 8 -12 10
-12 19 1 5 8 9 20 9 25 0 6 -3 4 -6 -2 -2 -7 -9 -13 -14 -13 -4 0 -6 6 -3 14
4 10 20 13 52 12 26 -1 53 3 61 9 11 7 13 7 7 -3 -6 -10 -1 -11 21 -7 32 7 31
7 96 2 29 -2 47 1 47 7 0 6 4 5 9 -3 7 -11 9 -11 14 0 3 8 6 9 6 2 1 -7 12 -9
31 -7 25 4 30 2 30 -15 0 -25 -17 -28 -22 -4 -2 13 -6 10 -16 -11 -10 -22 -10
-26 0 -19 7 4 18 8 23 9 6 0 16 2 23 2 7 1 11 6 8 11 -12 18 5 41 22 32 10 -5
19 -10 22 -12 3 -1 14 3 26 9 16 8 24 8 32 0 9 -9 12 -9 12 -1 0 8 10 8 35 0
19 -6 35 -14 35 -19 0 -10 -13 -10 -25 0 -6 5 -21 -3 -35 -17 l-25 -25 27 17
c33 21 44 22 29 3 -8 -10 -9 -16 -1 -21 6 -4 10 -3 9 2 -3 20 2 25 15 14 10
-9 16 -9 21 -1 5 8 14 6 28 -7 21 -17 21 -17 7 1 -13 16 -12 20 3 31 16 11 15
13 -9 13 -14 0 -21 -3 -15 -7 6 -4 4 -11 -8 -18 -15 -10 -18 -8 -18 17 0 25 3
27 24 19 14 -5 23 -5 23 1 0 6 10 6 27 -1 20 -7 28 -6 35 3 4 8 8 8 8 2 0 -11
60 -11 78 0 6 3 13 2 17 -4 4 -6 11 -8 16 -4 5 3 16 0 24 -6 12 -10 19 -10 32
1 15 12 16 12 11 -3 -4 -9 -1 -24 7 -34 12 -16 13 -15 9 13 -3 26 0 32 21 35
26 5 47 -3 44 -18 -7 -36 9 -43 38 -16 10 9 14 13 7 9 -7 -5 -14 -2 -17 5 -3
8 -6 6 -6 -5 -1 -10 -5 -16 -11 -12 -5 3 -7 12 -4 19 4 10 23 13 65 12 32 -1
60 3 62 8 2 6 6 2 10 -8 4 -9 3 -15 -2 -11 -5 3 -13 0 -17 -6 -4 -8 -9 -7 -16
2 -8 11 -9 10 -5 -3 3 -9 -1 -19 -9 -22 -8 -3 -14 -10 -14 -16 0 -6 12 1 28
15 23 21 29 23 38 11 7 -10 15 -12 25 -5 12 7 12 9 -1 9 -9 0 -16 10 -17 21
-2 21 -1 21 13 3 9 -11 13 -14 10 -7 -5 8 11 11 59 9 35 -2 62 1 59 5 -2 4 10
3 28 -2 22 -6 34 -6 36 1 2 6 8 7 13 4 6 -3 2 -12 -8 -20 -15 -11 -15 -13 -2
-8 10 3 20 1 24 -5 3 -6 -2 -11 -13 -11 -11 0 -26 -7 -33 -17 -13 -15 -12 -15
11 -3 14 7 31 16 39 20 8 3 17 13 19 21 3 11 2 12 -6 0 -6 -8 -12 -9 -16 -3
-8 14 3 20 34 18 14 -1 28 3 32 9 5 7 8 7 8 -1 0 -6 16 -9 40 -7 36 3 40 0 41
-20 1 -21 1 -21 7 -1 5 14 14 20 30 19 13 -1 25 2 28 7 3 4 6 87 6 183 1 164
2 174 19 165 11 -7 20 -7 24 0 12 19 32 -1 29 -31 -2 -16 1 -29 7 -29 6 0 7 5
4 10 -3 6 -1 10 4 10 6 0 11 -5 11 -12 0 -6 3 -8 7 -4 5 4 0 13 -10 21 -24 17
-12 43 19 39 14 -1 28 -5 31 -8 3 -2 16 -1 30 5 13 5 22 5 19 0 -9 -13 31 -44
49 -38 10 4 15 0 16 -11 0 -10 3 -12 6 -5 2 7 -3 23 -12 35 -13 18 -16 19 -11
4 5 -14 2 -17 -10 -12 -8 3 -18 6 -20 6 -2 0 -4 6 -4 13 0 13 34 17 45 5 3 -3
22 -2 41 2 29 7 34 5 30 -6 -9 -25 2 -15 16 13 9 18 13 60 13 116 -1 55 3 87
9 87 8 0 8 3 0 8 -13 9 -13 94 1 104 7 5 7 8 0 8 -7 0 -10 67 -9 193 1 169 -1
196 -18 225 -14 27 -18 55 -18 148 l0 114 -160 0 -160 0 0 38 c0 20 -7 50 -16
67 -11 21 -15 56 -14 125 2 167 4 157 -31 157 -23 0 -27 -3 -15 -9 9 -5 21 -6
27 -2 7 4 10 1 7 -6 -2 -8 -22 -14 -50 -15 -26 0 -44 3 -42 7 3 4 0 8 -6 8 -6
0 -9 4 -6 8 3 5 -2 9 -10 9 -10 0 -11 -4 -4 -11 17 -17 11 -22 -24 -22 -19 0
-32 4 -30 8 3 5 0 8 -6 8 -6 0 -9 4 -6 8 5 9 -89 11 -97 2 -3 -3 15 -5 41 -5
25 0 47 -5 49 -10 2 -6 -12 -11 -32 -11 -19 0 -35 4 -35 9 0 4 -6 5 -12 0 -19
-11 -39 -13 -32 -2 3 5 -2 9 -10 9 -9 0 -16 -4 -16 -8 0 -4 -234 -8 -520 -8
l-520 0 0 203 c0 183 6 233 24 188 6 -17 32 -20 40 -6 4 5 -3 7 -14 4 -15 -4
-20 0 -20 13 0 11 4 15 8 9 8 -12 161 -14 179 -2 6 4 14 3 17 -2 4 -5 18 -7
34 -5 15 2 34 0 42 -6 13 -8 12 -11 -5 -24 -24 -17 -33 -12 -15 9 7 9 8 15 2
15 -6 0 -13 -6 -15 -12 -4 -10 -8 -9 -17 2 -10 13 -11 13 -6 -2 3 -10 1 -18
-4 -18 -6 0 -10 8 -11 18 0 13 -3 12 -11 -5 -6 -13 -15 -23 -20 -23 -11 0 -10
14 2 26 7 7 7 11 -3 11 -15 0 -20 -34 -6 -42 5 -4 15 -3 22 2 19 12 40 10 61
-7 11 -9 16 -10 12 -2 -6 11 -1 14 22 11 4 -1 6 -6 4 -12 -2 -6 5 -3 16 6 21
19 39 8 26 -15 -5 -10 -4 -10 5 -2 10 9 9 17 -4 37 -16 24 -15 26 4 36 12 7
22 7 26 2 3 -6 15 -8 28 -5 12 2 30 1 40 -2 15 -5 16 -8 5 -22 -8 -10 -8 -13
-1 -9 6 4 14 1 16 -5 4 -10 8 -9 16 2 6 8 10 20 10 25 0 6 -3 4 -6 -2 -7 -20
-19 -15 -20 7 -1 16 2 18 16 11 10 -6 23 -6 31 -1 8 5 19 6 24 2 16 -9 86 -10
86 0 0 5 8 4 18 -1 11 -6 24 -6 34 0 9 5 19 6 22 1 5 -9 87 -9 103 1 5 3 13 3
17 -1 11 -11 70 -8 79 3 5 6 6 1 3 -10 -6 -23 9 -53 21 -42 4 5 1 12 -6 16
-22 14 -3 30 35 29 31 -1 35 -4 32 -27 -2 -21 -8 -25 -25 -23 -13 2 -23 -1
-23 -6 0 -5 12 -8 28 -6 l27 3 0 -109 c0 -63 -4 -110 -9 -110 -6 0 -5 -5 1
-11 6 -6 9 -18 6 -25 -3 -7 2 -21 11 -29 9 -9 16 -13 16 -9 0 4 7 -1 15 -12
10 -13 13 -14 10 -3 -4 10 0 16 9 16 8 0 13 -5 9 -10 -3 -5 4 -6 18 -1 49 15
93 11 107 -10 9 -13 12 -15 8 -4 -3 9 2 19 10 22 9 3 12 1 9 -4 -8 -13 5 -13
25 0 11 7 18 3 28 -13 7 -12 11 -14 8 -5 -3 9 2 19 10 22 10 4 12 2 8 -6 -5
-8 -1 -9 12 -4 29 11 109 15 90 4 -22 -12 -20 -23 8 -42 18 -11 27 -13 32 -4
4 6 3 8 -3 5 -5 -4 -10 6 -10 23 0 25 2 27 12 13 10 -13 14 -13 20 -3 6 9 4
11 -6 5 -8 -5 -11 -5 -7 0 4 4 26 8 49 9 36 2 39 1 24 -10 -10 -8 -22 -11 -27
-8 -10 6 -38 -14 -38 -26 0 -5 8 -7 18 -5 9 1 23 -2 30 -8 9 -7 16 -7 23 0 8
8 7 13 -2 18 -8 5 -10 4 -5 -3 4 -7 3 -12 -3 -12 -20 0 -21 19 -2 29 25 14 32
14 29 0 -2 -6 4 -14 12 -16 9 -3 11 -1 5 4 -6 4 -11 15 -10 23 0 20 65 22 65
2 0 -12 3 -12 16 -1 23 19 44 20 45 1 0 -14 2 -13 9 3 5 11 9 14 9 8 1 -7 6
-13 12 -13 5 0 8 4 4 9 -3 6 4 8 15 6 11 -2 20 1 20 6 0 6 4 8 8 5 4 -2 7 78
7 179 -1 153 -4 187 -18 209 -13 20 -17 49 -17 141 l0 115 -160 0 -160 0 0 33
c-1 17 -7 43 -15 57 -10 18 -14 60 -15 143 l0 117 -82 1 c-464 3 -1541 3
-1603 -1z m650 -668 c-2 -9 -4 -21 -4 -26 -2 -18 -14 4 -17 28 -2 17 2 23 11
20 7 -3 12 -13 10 -22z m1085 -362 c0 -5 -7 -10 -15 -10 -8 0 -15 5 -15 10 0
6 7 10 15 10 8 0 15 -4 15 -10z m70 -4 c0 -3 -4 -8 -10 -11 -5 -3 -10 -1 -10
4 0 6 5 11 10 11 6 0 10 -2 10 -4z m-1080 -687 c0 -5 -4 -9 -10 -9 -5 0 -10 7
-10 16 0 8 5 12 10 9 6 -3 10 -10 10 -16z m41 -2 c-8 -8 -14 -7 -23 2 -10 11
-10 13 0 7 6 -4 12 -2 12 4 0 6 5 8 11 4 8 -4 8 -9 0 -17z m78 10 c9 4 12 2 8
-3 -11 -12 -67 -14 -67 -2 0 5 5 6 10 3 6 -3 10 -1 10 6 0 10 3 10 11 2 6 -6
19 -9 28 -6z m41 -8 c0 -5 -4 -9 -10 -9 -5 0 -10 7 -10 16 0 8 5 12 10 9 6 -3
10 -10 10 -16z m89 0 c-19 -12 -29 -11 -29 2 0 5 5 7 10 4 6 -3 10 -1 10 5 0
6 5 8 11 4 8 -4 7 -9 -2 -15z m-439 7 c0 -3 -4 -8 -10 -11 -5 -3 -10 -1 -10 4
0 6 5 11 10 11 6 0 10 -2 10 -4z m391 -9 c-7 -7 -14 -8 -21 -1 -6 6 -2 10 12
11 16 2 18 -1 9 -10z m-791 -27 c0 -5 -7 -10 -15 -10 -8 0 -15 5 -15 10 0 6 7
10 15 10 8 0 15 -4 15 -10z m-350 -675 c0 -8 -4 -15 -10 -15 -5 0 -7 7 -4 15
4 8 8 15 10 15 2 0 4 -7 4 -15z m1220 -345 c0 -5 -5 -10 -11 -10 -5 0 -7 5 -4
10 3 6 8 10 11 10 2 0 4 -4 4 -10z"/>
<path d="M1445 2359 c-4 -6 1 -20 12 -30 19 -20 20 -20 47 2 15 12 25 23 22
26 -2 3 -15 -4 -27 -16 -26 -24 -38 -20 -18 6 7 10 9 15 5 11 -5 -4 -15 -3
-22 3 -8 7 -14 7 -19 -2z m20 -9 c3 -5 1 -10 -4 -10 -6 0 -11 5 -11 10 0 6 2
10 4 10 3 0 8 -4 11 -10z"/>
<path d="M1600 2358 c-12 -8 -12 -9 3 -4 28 9 16 -26 -13 -37 -12 -4 -12 -6 2
-6 9 -1 19 3 23 9 3 5 12 7 19 4 17 -6 29 23 14 32 -6 4 -8 3 -4 -4 3 -6 2
-13 -4 -17 -5 -3 -10 1 -10 9 0 20 -13 27 -30 14z"/>
<path d="M1757 2353 c-9 -10 -17 -12 -17 -6 0 12 -25 12 -37 -1 -4 -4 -3 -7 2
-6 23 5 36 -1 29 -12 -5 -9 -2 -8 9 1 15 12 20 11 35 -2 16 -15 20 -15 40 -1
12 8 22 20 22 25 0 5 -10 1 -22 -11 -25 -23 -37 -19 -17 7 7 10 9 15 5 11 -5
-4 -14 -4 -21 2 -7 6 -17 4 -28 -7z m28 -3 c3 -5 1 -10 -4 -10 -6 0 -11 5 -11
10 0 6 2 10 4 10 3 0 8 -4 11 -10z"/>
<path d="M1884 2355 c-5 -11 -10 -13 -19 -5 -8 7 -12 5 -12 -5 0 -8 2 -13 5
-10 2 2 13 -6 24 -18 11 -12 17 -17 14 -10 -4 6 -3 13 1 16 5 2 2 2 -4 1 -15
-4 -16 5 -3 26 6 9 10 10 10 3 0 -6 9 -11 20 -10 17 1 19 12 2 12 -4 0 -13 4
-20 8 -7 5 -14 2 -18 -8z"/>
<path d="M1175 2351 c-3 -6 -1 -11 5 -11 6 0 8 -5 4 -12 -5 -7 -3 -8 6 -3 10
6 12 4 6 -11 -5 -14 -4 -16 5 -7 9 9 8 16 -4 33 -9 13 -17 17 -22 11z"/>
<path d="M1211 2355 c-2 -24 14 -33 29 -17 13 14 12 15 -2 9 -9 -3 -19 -1 -22
6 -2 7 -5 8 -5 2z"/>
<path d="M1673 2354 c3 -4 1 -16 -5 -28 -10 -19 -10 -20 5 -7 19 16 23 41 5
41 -6 0 -8 -3 -5 -6z"/>
<path d="M1950 2345 c0 -8 4 -15 8 -15 5 0 9 7 9 15 0 8 -4 15 -9 15 -4 0 -8
-7 -8 -15z"/>
<path d="M2015 2350 c3 -5 11 -10 16 -10 6 0 7 5 4 10 -3 6 -11 10 -16 10 -6
0 -7 -4 -4 -10z"/>
<path d="M1140 2330 c0 -6 4 -9 9 -6 5 4 12 1 14 -4 3 -6 4 -5 3 2 -3 15 -26
23 -26 8z"/>
<path d="M1116 2313 c-6 -14 -5 -15 5 -6 7 7 10 15 7 18 -3 3 -9 -2 -12 -12z"/>
<path d="M1236 2315 c-3 -8 -1 -15 4 -15 6 0 10 7 10 15 0 8 -2 15 -4 15 -2 0
-6 -7 -10 -15z"/>
<path d="M1695 2321 c-3 -5 0 -13 6 -17 7 -4 9 -3 5 4 -3 5 0 13 6 15 9 4 10
6 1 6 -6 1 -14 -3 -18 -8z"/>
<path d="M1510 2312 c0 -4 9 -8 19 -8 11 0 17 4 15 8 -3 4 -12 8 -20 8 -8 0
-14 -4 -14 -8z"/>
<path d="M1755 2310 c3 -5 8 -10 11 -10 2 0 4 5 4 10 0 6 -5 10 -11 10 -5 0
-7 -4 -4 -10z"/>
<path d="M1826 2311 c-4 -5 3 -7 14 -4 23 6 26 13 6 13 -8 0 -17 -4 -20 -9z"/>
<path d="M1958 2313 c7 -3 16 -2 19 1 4 3 -2 6 -13 5 -11 0 -14 -3 -6 -6z"/>
<path d="M1959 2263 c-13 -16 -12 -17 4 -4 9 7 17 15 17 17 0 8 -8 3 -21 -13z"/>
<path d="M1145 2230 c-3 -6 1 -7 9 -4 18 7 21 14 7 14 -6 0 -13 -4 -16 -10z"/>
<path d="M1104 2112 c4 -3 14 -7 22 -8 9 -1 13 0 10 4 -4 3 -14 7 -22 8 -9 1
-13 0 -10 -4z"/>
<path d="M2636 1998 c3 -5 10 -6 15 -3 13 9 11 12 -6 12 -8 0 -12 -4 -9 -9z"/>
<path d="M2716 1995 c-9 -26 -7 -32 5 -12 6 10 9 21 6 23 -2 3 -7 -2 -11 -11z"/>
<path d="M2671 1984 c0 -11 3 -14 6 -6 3 7 2 16 -1 19 -3 4 -6 -2 -5 -13z"/>
<path d="M2290 1980 c0 -5 5 -10 11 -10 5 0 7 5 4 10 -3 6 -8 10 -11 10 -2 0
-4 -4 -4 -10z"/>
<path d="M2370 1980 c0 -5 5 -10 11 -10 5 0 7 5 4 10 -3 6 -8 10 -11 10 -2 0
-4 -4 -4 -10z"/>
<path d="M2639 1943 c-13 -16 -12 -17 4 -4 16 13 21 21 13 21 -2 0 -10 -8 -17
-17z"/>
<path d="M2490 1806 c0 -2 8 -10 18 -17 15 -13 16 -12 3 4 -13 16 -21 21 -21
13z"/>
<path d="M310 1656 c0 -2 7 -7 16 -10 8 -3 12 -2 9 4 -6 10 -25 14 -25 6z"/>
<path d="M595 1650 c-4 -6 -14 -8 -23 -6 -21 7 -53 -13 -34 -21 6 -2 10 -8 7
-13 -3 -4 5 -5 17 -2 19 5 20 7 6 10 -16 3 -26 22 -12 22 20 0 42 -23 39 -40
-2 -11 0 -22 5 -25 5 -3 7 4 5 15 -2 11 2 20 8 20 7 0 4 5 -6 11 -14 8 -16 14
-6 25 6 8 9 14 6 14 -3 0 -9 -5 -12 -10z"/>
<path d="M358 1643 c7 -3 16 -2 19 1 4 3 -2 6 -13 5 -11 0 -14 -3 -6 -6z"/>
<path d="M397 1643 c-4 -3 -7 -11 -7 -17 0 -6 5 -5 12 2 6 6 9 14 7 17 -3 3
-9 2 -12 -2z"/>
<path d="M490 1640 c0 -6 -4 -9 -8 -6 -4 2 -9 -5 -9 -17 -2 -19 -1 -20 8 -5 6
10 16 15 26 11 10 -4 14 -2 11 7 -5 17 -28 25 -28 10z"/>
<path d="M622 1641 c-11 -6 -10 -10 4 -15 20 -8 32 0 18 14 -5 5 -15 5 -22 1z"/>
<path d="M416 1625 c-9 -26 -7 -32 5 -12 6 10 9 21 6 23 -2 3 -7 -2 -11 -11z"/>
<path d="M440 1630 c0 -5 5 -10 10 -10 6 0 10 5 10 10 0 6 -4 10 -10 10 -5 0
-10 -4 -10 -10z"/>
<path d="M836 1302 c-2 -4 -1 -14 3 -21 6 -10 10 -9 14 3 6 16 -8 32 -17 18z"/>
<path d="M1235 1300 c-4 -6 -15 -8 -26 -5 -11 4 -19 2 -19 -5 0 -6 -10 -15
-22 -20 -13 -5 -17 -9 -9 -9 8 -1 23 6 33 16 19 17 25 6 8 -15 -7 -8 -7 -9 1
-3 7 5 21 6 33 1 19 -7 22 -4 21 15 0 28 -10 41 -20 25z m10 -19 c-3 -6 -11
-11 -17 -11 -6 0 -6 6 2 15 14 17 26 13 15 -4z"/>
<path d="M1941 1284 c-12 -15 -24 -24 -28 -21 -3 4 -1 12 5 20 9 11 1 13 -43
13 l-54 -1 26 -22 c32 -28 42 -30 20 -5 -16 18 -16 19 13 19 22 0 27 -4 20
-12 -7 -8 -2 -15 16 -24 14 -6 23 -7 20 -2 -3 5 3 20 14 32 22 27 26 19 9 -14
-7 -12 -8 -19 -4 -15 5 4 14 3 22 -3 9 -9 13 -8 13 0 0 6 -5 11 -11 11 -6 0
-8 8 -4 19 9 31 -12 34 -34 5z"/>
<path d="M775 1283 c-3 -10 0 -11 14 -4 12 7 22 6 30 -2 10 -9 11 -8 6 5 -8
19 -42 20 -50 1z"/>
<path d="M910 1296 c0 -2 8 -10 18 -17 15 -13 16 -12 3 4 -13 16 -21 21 -21
13z"/>
<path d="M950 1286 c7 -7 13 -7 20 0 6 6 3 10 -10 10 -13 0 -16 -4 -10 -10z"/>
<path d="M1136 1284 c-3 -7 3 -10 15 -7 26 7 32 19 9 19 -11 0 -22 -6 -24 -12z"/>
<path d="M1795 1281 c-4 -13 -4 -25 -1 -28 3 -4 6 2 6 13 0 16 2 17 10 4 5 -8
10 -10 10 -5 0 6 -4 16 -9 24 -7 11 -10 9 -16 -8z"/>
<path d="M2010 1289 c0 -5 -4 -7 -10 -4 -5 3 -10 1 -10 -4 0 -16 16 -13 30 4
9 10 9 15 1 15 -6 0 -11 -5 -11 -11z"/>
<path d="M2035 1279 c-4 -6 -5 -12 -2 -15 2 -3 7 2 10 11 7 17 1 20 -8 4z"/>
<path d="M1290 1270 c0 -5 5 -10 11 -10 5 0 7 5 4 10 -3 6 -8 10 -11 10 -2 0
-4 -4 -4 -10z"/>
<path d="M1336 1272 c-4 -7 -5 -12 -2 -12 2 0 11 -3 20 -6 9 -3 16 -1 16 6 0
6 -4 9 -9 6 -5 -4 -11 -1 -13 6 -3 9 -6 9 -12 0z"/>
<path d="M1599 1223 c-13 -16 -12 -17 4 -4 16 13 21 21 13 21 -2 0 -10 -8 -17
-17z"/>
<path d="M2605 590 c6 -9 2 -10 -16 -5 -17 5 -12 -1 15 -19 21 -15 41 -25 44
-21 3 3 0 5 -6 5 -20 0 -13 16 8 17 11 1 19 -3 17 -9 -1 -6 4 -13 11 -15 19
-7 14 12 -8 32 -11 10 -20 14 -20 9 0 -6 -9 -10 -20 -11 -11 -1 -18 2 -15 7 3
5 0 12 -6 16 -8 5 -9 3 -4 -6z"/>
<path d="M2756 577 c3 -10 9 -15 12 -12 3 3 0 11 -7 18 -10 9 -11 8 -5 -6z"/>
<path d="M483 562 c-9 -15 -8 -19 2 -19 8 0 13 5 12 11 -1 6 4 10 11 8 8 -1
11 2 7 8 -9 15 -19 12 -32 -8z"/>
<path d="M2510 570 c0 -6 7 -10 15 -10 8 0 15 2 15 4 0 2 -7 6 -15 10 -8 3
-15 1 -15 -4z"/>
<path d="M398 553 c7 -3 16 -2 19 1 4 3 -2 6 -13 5 -11 0 -14 -3 -6 -6z"/>
<path d="M510 546 c0 -2 8 -10 18 -17 15 -13 16 -12 3 4 -13 16 -21 21 -21 13z"/>
<path d="M2669 473 c-13 -16 -12 -17 4 -4 16 13 21 21 13 21 -2 0 -10 -8 -17
-17z"/>
<path d="M675 230 c6 -30 16 -40 12 -12 -2 12 -6 24 -10 28 -3 4 -4 -4 -2 -16z"/>
<path d="M735 240 c6 -10 4 -12 -8 -7 -9 3 -18 3 -21 -1 -3 -4 4 -8 14 -9 23
-2 35 13 19 23 -8 5 -9 3 -4 -6z"/>
<path d="M837 226 c-10 -14 -17 -31 -17 -38 0 -7 8 2 17 21 16 32 17 33 26 13
5 -11 16 -23 23 -26 19 -7 18 -3 -9 28 l-24 27 -16 -25z"/>
<path d="M1080 235 c-8 -9 -16 -12 -19 -6 -4 5 -11 -1 -17 -14 -11 -24 -11
-24 13 -8 21 14 26 14 35 2 6 -10 7 -7 2 11 -6 22 -5 23 9 12 12 -11 17 -11
23 0 4 7 4 10 -1 6 -4 -4 -14 -3 -20 2 -9 7 -16 5 -25 -5z"/>
<path d="M1396 235 c4 -9 -1 -21 -11 -29 -14 -10 -15 -15 -5 -21 8 -5 11 -4 7
2 -4 6 0 13 8 17 17 6 20 32 5 41 -6 3 -7 -1 -4 -10z"/>
<path d="M1699 237 c16 -20 1 -23 -18 -4 -11 10 -11 8 0 -10 11 -18 16 -20 28
-10 12 10 14 9 7 -8 -5 -13 -4 -17 3 -10 14 14 18 39 6 40 -5 0 -17 4 -25 10
-13 8 -13 7 -1 -8z"/>
<path d="M1840 240 c0 -5 -6 -7 -14 -4 -16 6 -16 -19 -1 -33 4 -5 5 -2 0 6 -6
10 -4 13 6 9 10 -4 15 1 16 13 1 10 0 19 -3 19 -2 0 -4 -4 -4 -10z"/>
<path d="M955 232 c2 -3 0 -13 -6 -24 -9 -17 -8 -19 7 -10 21 12 27 39 8 39
-8 0 -12 -2 -9 -5z"/>
<path d="M990 236 c0 -4 6 -14 14 -21 12 -12 16 -12 25 -1 9 11 9 16 0 22 -8
4 -9 3 -5 -4 9 -16 -7 -15 -22 0 -7 7 -12 9 -12 4z"/>
<path d="M1145 231 c3 -5 -3 -12 -14 -16 -11 -3 -22 -13 -25 -21 -4 -11 2 -9
24 6 25 18 33 40 14 40 -3 0 -3 -4 1 -9z"/>
<path d="M1199 238 c-6 -11 -5 -48 1 -48 4 0 8 11 8 25 0 21 -5 32 -9 23z"/>
<path d="M1223 217 c-1 -11 -1 -18 0 -16 2 2 8 11 15 20 9 12 9 16 -1 16 -7 0
-14 -9 -14 -20z"/>
<path d="M1322 221 c7 -9 13 -18 15 -20 1 -2 1 5 0 16 0 11 -7 20 -14 20 -10
0 -10 -4 -1 -16z"/>
<path d="M1353 212 c0 -25 0 -25 11 -3 7 12 14 20 17 19 2 -2 3 -1 1 1 -10 17
-29 5 -29 -17z"/>
<path d="M1420 229 c0 -5 5 -7 10 -4 6 3 10 8 10 11 0 2 -4 4 -10 4 -5 0 -10
-5 -10 -11z"/>
<path d="M1574 232 c4 -7 1 -12 -8 -12 -9 0 -16 -5 -16 -11 0 -5 4 -8 9 -4 6
3 14 -3 20 -12 6 -10 11 -13 11 -6 0 7 7 10 18 7 14 -5 14 -4 2 4 -8 6 -18 8
-24 5 -5 -4 -7 1 -3 10 3 9 1 19 -5 23 -7 4 -8 3 -4 -4z"/>
<path d="M1616 225 c-3 -9 -2 -14 3 -10 5 3 11 0 13 -7 3 -7 10 -8 21 -2 11 7
13 14 7 24 -8 12 -10 11 -10 -5 -1 -19 -1 -19 -14 -2 -12 16 -14 16 -20 2z"/>
<path d="M1943 235 c4 -5 -4 -16 -19 -25 -23 -16 -23 -18 -8 -24 10 -4 15 -4
12 0 -4 3 2 14 14 24 17 14 19 18 7 25 -8 5 -11 4 -6 0z"/>
<path d="M2066 231 c-3 -4 0 -15 7 -24 9 -13 16 -14 27 -6 13 9 12 10 -3 5
-15 -5 -17 -2 -12 14 6 20 -9 28 -19 11z"/>
<path d="M2100 230 c0 -5 5 -10 11 -10 5 0 7 5 4 10 -3 6 -8 10 -11 10 -2 0
-4 -4 -4 -10z"/>
<path d="M2136 232 c-3 -5 1 -18 9 -28 15 -18 15 -18 8 1 -3 11 -3 17 2 13 4
-4 17 -2 29 4 l21 11 -20 -23 -20 -23 23 14 c27 17 29 38 2 36 -11 -1 -20 -5
-20 -10 0 -5 -6 -4 -14 2 -8 7 -17 8 -20 3z"/>
<path d="M2294 228 c2 -7 -4 -18 -12 -24 -12 -9 -12 -13 -2 -19 8 -5 11 -4 7
2 -4 5 5 16 18 23 14 7 25 18 25 23 0 5 -6 4 -14 -2 -10 -8 -16 -9 -19 -1 -3
6 -4 5 -3 -2z"/>
<path d="M2343 217 c-2 -17 0 -19 8 -7 8 13 12 12 25 -5 9 -11 14 -14 12 -6
-2 8 -13 20 -24 27 -18 12 -20 11 -21 -9z"/>
<path d="M1746 203 c-4 -10 -4 -14 0 -11 4 4 16 3 28 -3 19 -9 19 -9 4 4 -10
8 -15 17 -11 20 3 4 2 7 -4 7 -6 0 -14 -8 -17 -17z"/>
<path d="M1155 201 c-3 -5 0 -13 6 -17 7 -4 9 -3 5 4 -3 5 0 13 6 15 9 4 10 6
1 6 -6 1 -14 -3 -18 -8z"/>
<path d="M1990 195 c-11 -13 -10 -14 4 -9 9 3 16 10 16 15 0 13 -6 11 -20 -6z"/>
<path d="M2315 200 c-3 -5 -1 -10 4 -10 6 0 11 5 11 10 0 6 -2 10 -4 10 -3 0
-8 -4 -11 -10z"/>
<path d="M1665 190 c3 -5 8 -10 11 -10 2 0 4 5 4 10 0 6 -5 10 -11 10 -5 0 -7
-4 -4 -10z"/>
<path d="M2045 190 c3 -5 8 -10 11 -10 2 0 4 5 4 10 0 6 -5 10 -11 10 -5 0 -7
-4 -4 -10z"/>
<path d="M1133 165 c0 -8 4 -12 9 -9 5 3 6 10 3 15 -9 13 -12 11 -12 -6z"/>
<path d="M1313 165 c0 -8 4 -12 9 -9 5 3 6 10 3 15 -9 13 -12 11 -12 -6z"/>
<path d="M796 152 c-3 -5 1 -9 9 -9 8 0 12 4 9 9 -3 4 -7 8 -9 8 -2 0 -6 -4
-9 -8z"/>
<path d="M1395 151 c-3 -5 -2 -12 3 -15 5 -3 9 1 9 9 0 17 -3 19 -12 6z"/>
<path d="M1555 110 c-3 -5 -1 -10 4 -10 6 0 11 5 11 10 0 6 -2 10 -4 10 -3 0
-8 -4 -11 -10z"/>
<path d="M1310 86 c0 -2 8 -10 18 -17 15 -13 16 -12 3 4 -13 16 -21 21 -21 13z"/>
</g>
</svg>
